# xmcd
#
# Track frame offsets: 
#        150
#        16346
#        28236
#        50172
#        68572
#
# Disc length: 1208 seconds
#
# Revision: 0
# Processed by: cddbd v1.5.1PL0 Copyright (c) Steve Scherf et al.
# Submitted via: ExactAudioCopy v0.95a5
#
DISCID=3e04b605
DTITLE=Kevin Sharp - I'll Still Be Good To You (Collector's Edition)
DYEAR=1995
DGENRE=Country
TTITLE0=I'll Still Be Good To You
TTITLE1=Love Is Like A Roller Coaster
TTITLE2=Every Man
TTITLE3=Slow Burnin' Love
TTITLE4=She's Crying
EXTD=
EXTT0=
EXTT1=
EXTT2=
EXTT3=
EXTT4=
PLAYORDER=
